<svg width="59" height="27" viewBox="0 0 59 27" fill="none" xmlns="http://www.w3.org/2000/svg">
<path d="M2 26.2L5.85941 22.2476V4.52448L2.82168 1H39.1748V12.9329C40.2471 16.8244 41.4555 18.0146 44.8021 18.2951C48.6225 17.5715 49.6105 16.3449 49.6326 12.9329V7.92308H50.6175C49.3144 7.86617 48.3997 1.63621 53.8655 1.65455C59.3813 1.67305 58.1002 8.01705 57.1771 7.92308H56.949V13.7385C56 22.2476 52.6952 26.2 44.8021 26.2C36.909 26.2 32.5 23.5 31.5058 1.73846V26.2H20.077L23.9862 22.2476V8.47692H22.7661V12.6056H22.1187C23.2681 13.401 22.759 18.3771 18.8569 18.2951C14.9548 18.2131 14.2754 13.7385 15.5204 12.6056C16.7654 11.4727 15.0971 12.6056 15.0971 12.6056V8.47692H13.8023V26.2H2Z" fill="#E5E9EF"/>
<path d="M2 26.2L5.85941 22.2476V4.52448L2.82168 1H39.1748V12.9329C40.2471 16.8244 41.4555 18.0146 44.8021 18.2951C48.6225 17.5715 49.6105 16.3449 49.6326 12.9329V7.92308H50.6534C49.3317 7.98086 48.3496 1.63604 53.8655 1.65455C59.3813 1.67305 58.1002 8.01705 57.1771 7.92308H56.949V13.7385C56 22.2476 52.6952 26.2 44.8021 26.2C36.909 26.2 32.5 23.5 31.5058 1.73846V26.2H20.077L23.9862 22.2476V8.47692H22.7661V12.6056H22.1187C23.2681 13.401 22.759 18.3771 18.8569 18.2951C14.9548 18.2131 14.2754 13.7385 15.5204 12.6056C16.7654 11.4727 15.0971 12.6056 15.0971 12.6056V8.47692H13.8023V26.2H2Z" stroke="black"/>
<path d="M2 26.2L5.85941 22.2476V4.52448L2.82168 1H39.1748V12.9329C40.2471 16.8244 41.4555 18.0146 44.8021 18.2951C48.6225 17.5715 49.6105 16.3449 49.6326 12.9329V7.92308H50.6534C49.3317 7.98086 48.3496 1.63604 53.8655 1.65455C59.3813 1.67305 58.1002 8.01705 57.1771 7.92308H56.949V13.7385C56 22.2476 52.6952 26.2 44.8021 26.2C36.909 26.2 32.5 23.5 31.5058 1.73846V26.2H20.077L23.9862 22.2476V8.47692H22.7661V12.6056H22.1187C23.2681 13.401 22.759 18.3771 18.8569 18.2951C14.9548 18.2131 14.2754 13.7385 15.5204 12.6056C16.7654 11.4727 15.0971 12.6056 15.0971 12.6056V8.47692H13.8023V26.2H2Z" stroke="url(#paint0_linear)"/>
<circle cx="19" cy="15" r="1.5" fill="#C4C4C4" stroke="#5C9CE6"/>
<circle cx="54" cy="5" r="1.5" fill="#C4C4C4" stroke="#5C9CE6"/>
<defs>
<linearGradient id="paint0_linear" x1="30" y1="1" x2="30" y2="26.2" gradientUnits="userSpaceOnUse">
<stop stop-color="white"/>
<stop offset="1" stop-color="white" stop-opacity="0"/>
</linearGradient>
</defs>
</svg>
