<svg width="52" height="10" viewBox="0 0 52 10" fill="none" xmlns="http://www.w3.org/2000/svg">
<path d="M6.904 1.44V2.376H4.54V9H3.436V2.376H1.12V1.44H6.904ZM9.07572 1.44V9H7.97172V1.44H9.07572ZM13.0954 1.44H14.0794L17.0914 9H15.9394L15.1114 6.9H12.0034L11.1874 9H10.0474L13.0954 1.44ZM12.3034 6.024H14.7874L14.2834 4.716C14.1474 4.372 14.0234 4.04 13.9114 3.72C13.7994 3.4 13.6874 3.072 13.5754 2.736H13.5514C13.4394 3.072 13.3234 3.396 13.2034 3.708C13.0834 4.02 12.9554 4.356 12.8194 4.716L12.3034 6.024ZM18.0616 1.44H19.0216L22.4656 6.228C22.5936 6.404 22.7176 6.584 22.8376 6.768C22.9576 6.952 23.0656 7.132 23.1616 7.308H23.1856C23.1696 7.028 23.1576 6.748 23.1496 6.468C23.1416 6.188 23.1376 5.908 23.1376 5.628V1.44H24.2176V9H23.2576L19.8496 4.272C19.7296 4.104 19.6056 3.916 19.4776 3.708C19.3496 3.492 19.2296 3.28 19.1176 3.072H19.0936C19.1096 3.408 19.1216 3.744 19.1296 4.08C19.1376 4.416 19.1416 4.752 19.1416 5.088V9H18.0616V1.44ZM34.6306 1.44H36.0706L37.6546 6.264C37.7346 6.496 37.8106 6.724 37.8826 6.948C37.9546 7.164 38.0226 7.384 38.0866 7.608H38.1106C38.1746 7.384 38.2386 7.168 38.3026 6.96C38.3746 6.752 38.4546 6.52 38.5426 6.264L40.0906 1.44H41.5306L42.1906 9H41.0866L40.7746 4.992C40.7426 4.6 40.7186 4.212 40.7026 3.828C40.6866 3.436 40.6706 3.04 40.6546 2.64H40.6306C40.5186 3.032 40.4026 3.424 40.2826 3.816C40.1706 4.208 40.0506 4.6 39.9226 4.992L38.5906 9H37.5826L36.2506 4.98C36.1146 4.572 35.9906 4.184 35.8786 3.816C35.7666 3.44 35.6546 3.048 35.5426 2.64H35.5186C35.5026 3.032 35.4786 3.424 35.4466 3.816C35.4226 4.208 35.3946 4.6 35.3626 4.992L35.0746 9H33.9946L34.6306 1.44ZM46.0251 1.44H47.0091L50.0211 9H48.8691L48.0411 6.9H44.9331L44.1171 9H42.9771L46.0251 1.44ZM45.2331 6.024H47.7171L47.2131 4.716C47.0771 4.372 46.9531 4.04 46.8411 3.72C46.7291 3.4 46.6171 3.072 46.5051 2.736H46.4811C46.3691 3.072 46.2531 3.396 46.1331 3.708C46.0131 4.02 45.8851 4.356 45.7491 4.716L45.2331 6.024Z" fill="white"/>
<path d="M26.1241 1.44H27.0841L30.5281 6.228C30.6561 6.404 30.7801 6.584 30.9001 6.768C31.0201 6.952 31.1281 7.132 31.2241 7.308H31.2481C31.2321 7.028 31.2201 6.748 31.2121 6.468C31.2041 6.188 31.2001 5.908 31.2001 5.628V1.44H32.2801V9H31.3201L27.9121 4.272C27.7921 4.104 27.6681 3.916 27.5401 3.708C27.4121 3.492 27.2921 3.28 27.1801 3.072H27.1561C27.1721 3.408 27.1841 3.744 27.1921 4.08C27.2001 4.416 27.2041 4.752 27.2041 5.088V9H26.1241V1.44Z" fill="#FF0000"/>
<path d="M6.904 1.44H7.904V0.439999H6.904V1.44ZM6.904 2.376V3.376H7.904V2.376H6.904ZM4.54 2.376V1.376H3.54V2.376H4.54ZM4.54 9V10H5.54V9H4.54ZM3.436 9H2.436V10H3.436V9ZM3.436 2.376H4.436V1.376H3.436V2.376ZM1.12 2.376H0.12V3.376H1.12V2.376ZM1.12 1.44V0.439999H0.12V1.44H1.12ZM5.904 1.44V2.376H7.904V1.44H5.904ZM6.904 1.376H4.54V3.376H6.904V1.376ZM3.54 2.376V9H5.54V2.376H3.54ZM4.54 8H3.436V10H4.54V8ZM4.436 9V2.376H2.436V9H4.436ZM3.436 1.376H1.12V3.376H3.436V1.376ZM2.12 2.376V1.44H0.12V2.376H2.12ZM1.12 2.44H6.904V0.439999H1.12V2.44ZM9.07572 1.44H10.0757V0.439999H9.07572V1.44ZM9.07572 9V10H10.0757V9H9.07572ZM7.97172 9H6.97172V10H7.97172V9ZM7.97172 1.44V0.439999H6.97172V1.44H7.97172ZM8.07572 1.44V9H10.0757V1.44H8.07572ZM9.07572 8H7.97172V10H9.07572V8ZM8.97172 9V1.44H6.97172V9H8.97172ZM7.97172 2.44H9.07572V0.439999H7.97172V2.44ZM13.0954 1.44V0.439999H12.4204L12.168 1.06607L13.0954 1.44ZM14.0794 1.44L15.0084 1.06988L14.7575 0.439999H14.0794V1.44ZM17.0914 9V10H18.5663L18.0204 8.62988L17.0914 9ZM15.9394 9L15.0091 9.3668L15.2588 10H15.9394V9ZM15.1114 6.9L16.0417 6.5332L15.7921 5.9H15.1114V6.9ZM12.0034 6.9V5.9H11.3192L11.0713 6.53781L12.0034 6.9ZM11.1874 9V10H11.8717L12.1195 9.36219L11.1874 9ZM10.0474 9L9.11998 8.62607L8.56605 10H10.0474V9ZM12.3034 6.024L11.3732 5.65703L10.8339 7.024H12.3034V6.024ZM14.7874 6.024V7.024H16.2444L15.7206 5.66445L14.7874 6.024ZM14.2834 4.716L15.2166 4.35643L15.2134 4.34834L14.2834 4.716ZM13.9114 3.72L12.9676 4.05035L12.9676 4.05035L13.9114 3.72ZM13.5754 2.736L14.5241 2.41977L14.2962 1.736H13.5754V2.736ZM13.5514 2.736V1.736H12.8307L12.6028 2.41977L13.5514 2.736ZM13.2034 3.708L14.1368 4.06698L14.1368 4.06698L13.2034 3.708ZM12.8194 4.716L13.7497 5.08297L13.7523 5.07621L13.7549 5.0694L12.8194 4.716ZM13.0954 2.44H14.0794V0.439999H13.0954V2.44ZM13.1505 1.81012L16.1625 9.37012L18.0204 8.62988L15.0084 1.06988L13.1505 1.81012ZM17.0914 8H15.9394V10H17.0914V8ZM16.8697 8.6332L16.0417 6.5332L14.1811 7.2668L15.0091 9.3668L16.8697 8.6332ZM15.1114 5.9H12.0034V7.9H15.1114V5.9ZM11.0713 6.53781L10.2553 8.63781L12.1195 9.36219L12.9355 7.26219L11.0713 6.53781ZM11.1874 8H10.0474V10H11.1874V8ZM10.9749 9.37393L14.0229 1.81393L12.168 1.06607L9.11998 8.62607L10.9749 9.37393ZM12.3034 7.024H14.7874V5.024H12.3034V7.024ZM15.7206 5.66445L15.2166 4.35645L13.3503 5.07555L13.8543 6.38355L15.7206 5.66445ZM15.2134 4.34834C15.0818 4.01558 14.9625 3.69605 14.8553 3.38965L12.9676 4.05035C13.0843 4.38395 13.213 4.72841 13.3535 5.08366L15.2134 4.34834ZM14.8553 3.38965C14.745 3.07455 14.6346 2.75126 14.5241 2.41977L12.6268 3.05223C12.7403 3.39274 12.8539 3.72545 12.9676 4.05035L14.8553 3.38965ZM13.5754 1.736H13.5514V3.736H13.5754V1.736ZM12.6028 2.41977C12.4953 2.74225 12.3843 3.05196 12.2701 3.34902L14.1368 4.06698C14.2625 3.74004 14.3836 3.40175 14.5001 3.05223L12.6028 2.41977ZM12.2701 3.34902C12.1493 3.66313 12.0206 4.00101 11.884 4.3626L13.7549 5.0694C13.8903 4.71099 14.0176 4.37687 14.1368 4.06698L12.2701 3.34902ZM11.8892 4.34903L11.3732 5.65703L13.2337 6.39097L13.7497 5.08297L11.8892 4.34903ZM18.0616 1.44V0.439999H17.0616V1.44H18.0616ZM19.0216 1.44L19.8334 0.85607L19.5341 0.439999H19.0216V1.44ZM22.4656 6.228L21.6537 6.81194L21.6568 6.81617L22.4656 6.228ZM22.8376 6.768L22 7.31427L22 7.31427L22.8376 6.768ZM23.1616 7.308L22.2837 7.78685L22.5679 8.308H23.1616V7.308ZM23.1856 7.308V8.308H24.2443L24.1839 7.25095L23.1856 7.308ZM23.1376 1.44V0.439999H22.1376V1.44H23.1376ZM24.2176 1.44H25.2176V0.439999H24.2176V1.44ZM24.2176 9V10H25.2176V9H24.2176ZM23.2576 9L22.4463 9.58474L22.7457 10H23.2576V9ZM19.8496 4.272L19.0358 4.85324L19.0383 4.85674L19.8496 4.272ZM19.4776 3.708L18.6173 4.2178L18.6215 4.22499L18.6259 4.2321L19.4776 3.708ZM19.1176 3.072L19.998 2.5979L19.7149 2.072H19.1176V3.072ZM19.0936 3.072V2.072H18.0448L18.0947 3.11957L19.0936 3.072ZM19.1296 4.08L20.1293 4.0562L20.1293 4.0562L19.1296 4.08ZM19.1416 9V10H20.1416V9H19.1416ZM18.0616 9H17.0616V10H18.0616V9ZM18.0616 2.44H19.0216V0.439999H18.0616V2.44ZM18.2098 2.02393L21.6538 6.81193L23.2774 5.64407L19.8334 0.85607L18.2098 2.02393ZM21.6568 6.81617C21.7748 6.97832 21.8891 7.14434 22 7.31427L23.6752 6.22173C23.546 6.02366 23.4124 5.82968 23.2743 5.63983L21.6568 6.81617ZM22 7.31427C22.107 7.47838 22.2013 7.6359 22.2837 7.78685L24.0395 6.82915C23.9298 6.6281 23.8081 6.42562 23.6752 6.22173L22 7.31427ZM23.1616 8.308H23.1856V6.308H23.1616V8.308ZM24.1839 7.25095C24.1685 6.98043 24.1569 6.70993 24.1492 6.43944L22.15 6.49656C22.1582 6.78607 22.1706 7.07557 22.1872 7.36505L24.1839 7.25095ZM24.1492 6.43944C24.1414 6.16895 24.1376 5.89847 24.1376 5.628H22.1376C22.1376 5.91753 22.1417 6.20705 22.15 6.49656L24.1492 6.43944ZM24.1376 5.628V1.44H22.1376V5.628H24.1376ZM23.1376 2.44H24.2176V0.439999H23.1376V2.44ZM23.2176 1.44V9H25.2176V1.44H23.2176ZM24.2176 8H23.2576V10H24.2176V8ZM24.0688 8.41526L20.6608 3.68726L19.0383 4.85674L22.4463 9.58474L24.0688 8.41526ZM20.6633 3.69076C20.5587 3.54436 20.4473 3.37583 20.3292 3.1839L18.6259 4.2321C18.7638 4.45617 18.9004 4.66364 19.0358 4.85324L20.6633 3.69076ZM20.3379 3.1982C20.2164 2.99323 20.1032 2.79314 19.998 2.5979L18.2371 3.5461C18.356 3.76686 18.4827 3.99077 18.6173 4.2178L20.3379 3.1982ZM19.1176 2.072H19.0936V4.072H19.1176V2.072ZM18.0947 3.11957C18.1103 3.44765 18.122 3.77573 18.1298 4.1038L20.1293 4.0562C20.1211 3.71227 20.1088 3.36834 20.0924 3.02443L18.0947 3.11957ZM18.1298 4.1038C18.1377 4.43187 18.1416 4.75994 18.1416 5.088H20.1416C20.1416 4.74406 20.1375 4.40013 20.1293 4.0562L18.1298 4.1038ZM18.1416 5.088V9H20.1416V5.088H18.1416ZM19.1416 8H18.0616V10H19.1416V8ZM19.0616 9V1.44H17.0616V9H19.0616ZM26.1241 1.44V0.439999H25.1241V1.44H26.1241ZM27.0841 1.44L27.8959 0.85607L27.5966 0.439999H27.0841V1.44ZM30.5281 6.228L29.7162 6.81194L29.7193 6.81617L30.5281 6.228ZM30.9001 6.768L30.0625 7.31427L30.0625 7.31427L30.9001 6.768ZM31.2241 7.308L30.3462 7.78685L30.6304 8.308H31.2241V7.308ZM31.2481 7.308V8.308H32.3068L32.2464 7.25095L31.2481 7.308ZM31.2001 1.44V0.439999H30.2001V1.44H31.2001ZM32.2801 1.44H33.2801V0.439999H32.2801V1.44ZM32.2801 9V10H33.2801V9H32.2801ZM31.3201 9L30.5088 9.58474L30.8082 10H31.3201V9ZM27.9121 4.272L27.0983 4.85324L27.1008 4.85674L27.9121 4.272ZM27.5401 3.708L26.6798 4.2178L26.684 4.22499L26.6884 4.2321L27.5401 3.708ZM27.1801 3.072L28.0605 2.5979L27.7774 2.072H27.1801V3.072ZM27.1561 3.072V2.072H26.1073L26.1572 3.11957L27.1561 3.072ZM27.1921 4.08L28.1918 4.0562L28.1918 4.0562L27.1921 4.08ZM27.2041 9V10H28.2041V9H27.2041ZM26.1241 9H25.1241V10H26.1241V9ZM26.1241 2.44H27.0841V0.439999H26.1241V2.44ZM26.2723 2.02393L29.7163 6.81193L31.3399 5.64407L27.8959 0.85607L26.2723 2.02393ZM29.7193 6.81617C29.8373 6.97832 29.9516 7.14434 30.0625 7.31427L31.7377 6.22173C31.6085 6.02366 31.4749 5.82968 31.3368 5.63983L29.7193 6.81617ZM30.0625 7.31427C30.1695 7.47838 30.2638 7.6359 30.3462 7.78685L32.102 6.82915C31.9923 6.6281 31.8706 6.42562 31.7377 6.22173L30.0625 7.31427ZM31.2241 8.308H31.2481V6.308H31.2241V8.308ZM32.2464 7.25095C32.231 6.98043 32.2194 6.70993 32.2117 6.43944L30.2125 6.49656C30.2207 6.78607 30.2331 7.07557 30.2497 7.36505L32.2464 7.25095ZM32.2117 6.43944C32.2039 6.16895 32.2001 5.89847 32.2001 5.628H30.2001C30.2001 5.91753 30.2042 6.20705 30.2125 6.49656L32.2117 6.43944ZM32.2001 5.628V1.44H30.2001V5.628H32.2001ZM31.2001 2.44H32.2801V0.439999H31.2001V2.44ZM31.2801 1.44V9H33.2801V1.44H31.2801ZM32.2801 8H31.3201V10H32.2801V8ZM32.1313 8.41526L28.7233 3.68726L27.1008 4.85674L30.5088 9.58474L32.1313 8.41526ZM28.7258 3.69076C28.6212 3.54436 28.5098 3.37583 28.3917 3.1839L26.6884 4.2321C26.8263 4.45617 26.9629 4.66364 27.0983 4.85324L28.7258 3.69076ZM28.4004 3.1982C28.2789 2.99323 28.1657 2.79314 28.0605 2.5979L26.2996 3.5461C26.4185 3.76686 26.5452 3.99077 26.6798 4.2178L28.4004 3.1982ZM27.1801 2.072H27.1561V4.072H27.1801V2.072ZM26.1572 3.11957C26.1728 3.44765 26.1845 3.77573 26.1923 4.1038L28.1918 4.0562C28.1836 3.71227 28.1713 3.36834 28.1549 3.02443L26.1572 3.11957ZM26.1923 4.1038C26.2002 4.43187 26.2041 4.75994 26.2041 5.088H28.2041C28.2041 4.74406 28.2 4.40013 28.1918 4.0562L26.1923 4.1038ZM26.2041 5.088V9H28.2041V5.088H26.2041ZM27.2041 8H26.1241V10H27.2041V8ZM27.1241 9V1.44H25.1241V9H27.1241ZM34.6306 1.44V0.439999H33.7112L33.6341 1.35617L34.6306 1.44ZM36.0706 1.44L37.0207 1.12803L36.7947 0.439999H36.0706V1.44ZM37.6546 6.264L36.7045 6.57597L36.7068 6.583L36.7092 6.58999L37.6546 6.264ZM37.8826 6.948L36.9305 7.25403L36.9339 7.26423L37.8826 6.948ZM38.0866 7.608L37.125 7.88272L37.3323 8.608H38.0866V7.608ZM38.1106 7.608V8.608H38.8649L39.0721 7.88272L38.1106 7.608ZM38.3026 6.96L37.3576 6.63289L37.3519 6.64931L37.3468 6.66591L38.3026 6.96ZM38.5426 6.264L39.4882 6.58908L39.4916 6.57935L39.4947 6.56955L38.5426 6.264ZM40.0906 1.44V0.439999H39.3612L39.1384 1.13445L40.0906 1.44ZM41.5306 1.44L42.5268 1.35303L42.4471 0.439999H41.5306V1.44ZM42.1906 9V10H43.2817L43.1868 8.91303L42.1906 9ZM41.0866 9L40.0896 9.07761L40.1614 10H41.0866V9ZM40.7746 4.992L41.7716 4.91439L41.7712 4.91064L40.7746 4.992ZM40.7026 3.828L39.7034 3.86878L39.7034 3.86963L40.7026 3.828ZM40.6546 2.64L41.6538 2.60003L41.6154 1.64H40.6546V2.64ZM40.6306 2.64V1.64H39.8763L39.669 2.36528L40.6306 2.64ZM40.2826 3.816L39.3264 3.52328L39.3236 3.53226L39.321 3.54128L40.2826 3.816ZM39.9226 4.992L40.8715 5.30738L40.8732 5.3024L39.9226 4.992ZM38.5906 9V10H39.312L39.5395 9.31538L38.5906 9ZM37.5826 9L36.6333 9.31453L36.8604 10H37.5826V9ZM36.2506 4.98L37.1998 4.66547L37.1992 4.66377L36.2506 4.98ZM35.8786 3.816L34.9202 4.10148L34.9219 4.10716L35.8786 3.816ZM35.5426 2.64L36.5069 2.37528L36.305 1.64H35.5426V2.64ZM35.5186 2.64V1.64H34.5585L34.5194 2.59922L35.5186 2.64ZM35.4466 3.816L34.4499 3.73464L34.4491 3.74476L34.4484 3.75489L35.4466 3.816ZM35.3626 4.992L34.3658 4.91063L34.3651 4.92033L35.3626 4.992ZM35.0746 9V10H36.0053L36.072 9.07167L35.0746 9ZM33.9946 9L32.9981 8.91617L32.9069 10H33.9946V9ZM34.6306 2.44H36.0706V0.439999H34.6306V2.44ZM35.1205 1.75197L36.7045 6.57597L38.6047 5.95203L37.0207 1.12803L35.1205 1.75197ZM36.7092 6.58999C36.787 6.81564 36.8608 7.03697 36.9305 7.25401L38.8346 6.64199C38.7604 6.41103 38.6821 6.17636 38.5999 5.93801L36.7092 6.58999ZM36.9339 7.26423C37.0012 7.46617 37.0649 7.67233 37.125 7.88272L39.0481 7.33328C38.9802 7.09567 38.9079 6.86183 38.8312 6.63177L36.9339 7.26423ZM38.0866 8.608H38.1106V6.608H38.0866V8.608ZM39.0721 7.88272C39.1344 7.66475 39.1965 7.45522 39.2583 7.25409L37.3468 6.66591C37.2807 6.88078 37.2148 7.10325 37.149 7.33328L39.0721 7.88272ZM39.2475 7.28711C39.3198 7.0783 39.4001 6.84561 39.4882 6.58908L37.5969 5.93892C37.5091 6.19439 37.4293 6.4257 37.3576 6.63289L39.2475 7.28711ZM39.4947 6.56955L41.0427 1.74555L39.1384 1.13445L37.5904 5.95845L39.4947 6.56955ZM40.0906 2.44H41.5306V0.439999H40.0906V2.44ZM40.5344 1.52697L41.1944 9.08697L43.1868 8.91303L42.5268 1.35303L40.5344 1.52697ZM42.1906 8H41.0866V10H42.1906V8ZM42.0835 8.92239L41.7715 4.91439L39.7776 5.06961L40.0896 9.07761L42.0835 8.92239ZM41.7712 4.91064C41.7403 4.53156 41.7171 4.15681 41.7017 3.78637L39.7034 3.86963C39.72 4.26719 39.7448 4.66844 39.7779 5.07336L41.7712 4.91064ZM41.7017 3.78722C41.6857 3.39549 41.6698 2.99977 41.6538 2.60003L39.6554 2.67997C39.6714 3.08023 39.6874 3.47651 39.7034 3.86878L41.7017 3.78722ZM40.6546 1.64H40.6306V3.64H40.6546V1.64ZM39.669 2.36528C39.5588 2.75123 39.4445 3.13723 39.3264 3.52328L41.2388 4.10871C41.3606 3.71077 41.4784 3.31277 41.5921 2.91472L39.669 2.36528ZM39.321 3.54128C39.2125 3.92118 39.0961 4.30129 38.972 4.6816L40.8732 5.3024C41.005 4.89871 41.1286 4.49482 41.2441 4.09072L39.321 3.54128ZM38.9736 4.67662L37.6416 8.68462L39.5395 9.31538L40.8715 5.30738L38.9736 4.67662ZM38.5906 8H37.5826V10H38.5906V8ZM38.5318 8.68547L37.1998 4.66547L35.3013 5.29453L36.6333 9.31453L38.5318 8.68547ZM37.1992 4.66377C37.0657 4.26314 36.9444 3.88354 36.8352 3.52484L34.9219 4.10716C35.0367 4.48446 35.1634 4.88086 35.3019 5.29623L37.1992 4.66377ZM36.8369 3.53052C36.7272 3.16193 36.6171 2.77688 36.5069 2.37528L34.5782 2.90472C34.692 3.31912 34.806 3.71807 34.9202 4.10148L36.8369 3.53052ZM35.5426 1.64H35.5186V3.64H35.5426V1.64ZM34.5194 2.59922C34.5039 2.97764 34.4808 3.35611 34.4499 3.73464L36.4432 3.89736C36.4763 3.49189 36.5012 3.08636 36.5177 2.68078L34.5194 2.59922ZM34.4484 3.75489C34.4248 4.14012 34.3973 4.52537 34.3659 4.91064L36.3592 5.07336C36.3918 4.67463 36.4203 4.27587 36.4447 3.87711L34.4484 3.75489ZM34.3651 4.92033L34.0771 8.92833L36.072 9.07167L36.36 5.06367L34.3651 4.92033ZM35.0746 8H33.9946V10H35.0746V8ZM34.991 9.08383L35.627 1.52383L33.6341 1.35617L32.9981 8.91617L34.991 9.08383ZM46.0251 1.44V0.439999H45.3501L45.0977 1.06607L46.0251 1.44ZM47.0091 1.44L47.9381 1.06988L47.6872 0.439999H47.0091V1.44ZM50.0211 9V10H51.496L50.9501 8.62988L50.0211 9ZM48.8691 9L47.9388 9.3668L48.1885 10H48.8691V9ZM48.0411 6.9L48.9714 6.5332L48.7218 5.9H48.0411V6.9ZM44.9331 6.9V5.9H44.2489L44.001 6.53781L44.9331 6.9ZM44.1171 9V10H44.8014L45.0492 9.36219L44.1171 9ZM42.9771 9L42.0497 8.62607L41.4957 10H42.9771V9ZM45.2331 6.024L44.3029 5.65703L43.7636 7.024H45.2331V6.024ZM47.7171 6.024V7.024H49.1741L48.6502 5.66445L47.7171 6.024ZM47.2131 4.716L48.1463 4.35643L48.1431 4.34834L47.2131 4.716ZM46.8411 3.72L45.8973 4.05035L45.8973 4.05035L46.8411 3.72ZM46.5051 2.736L47.4538 2.41977L47.2259 1.736H46.5051V2.736ZM46.4811 2.736V1.736H45.7604L45.5324 2.41977L46.4811 2.736ZM46.1331 3.708L47.0665 4.06698L47.0665 4.06698L46.1331 3.708ZM45.7491 4.716L46.6794 5.08297L46.682 5.07621L46.6846 5.0694L45.7491 4.716ZM46.0251 2.44H47.0091V0.439999H46.0251V2.44ZM46.0801 1.81012L49.0921 9.37012L50.9501 8.62988L47.9381 1.06988L46.0801 1.81012ZM50.0211 8H48.8691V10H50.0211V8ZM49.7994 8.6332L48.9714 6.5332L47.1108 7.2668L47.9388 9.3668L49.7994 8.6332ZM48.0411 5.9H44.9331V7.9H48.0411V5.9ZM44.001 6.53781L43.185 8.63781L45.0492 9.36219L45.8652 7.26219L44.001 6.53781ZM44.1171 8H42.9771V10H44.1171V8ZM43.9046 9.37393L46.9526 1.81393L45.0977 1.06607L42.0497 8.62607L43.9046 9.37393ZM45.2331 7.024H47.7171V5.024H45.2331V7.024ZM48.6502 5.66445L48.1463 4.35645L46.28 5.07555L46.784 6.38355L48.6502 5.66445ZM48.1431 4.34834C48.0115 4.01558 47.8922 3.69605 47.785 3.38965L45.8973 4.05035C46.014 4.38395 46.1427 4.72841 46.2832 5.08366L48.1431 4.34834ZM47.785 3.38965C47.6747 3.07455 47.5643 2.75126 47.4538 2.41977L45.5564 3.05223C45.6699 3.39274 45.7836 3.72545 45.8973 4.05035L47.785 3.38965ZM46.5051 1.736H46.4811V3.736H46.5051V1.736ZM45.5324 2.41977C45.4249 2.74225 45.314 3.05196 45.1998 3.34902L47.0665 4.06698C47.1922 3.74004 47.3133 3.40175 47.4298 3.05223L45.5324 2.41977ZM45.1998 3.34902C45.079 3.66313 44.9503 4.00101 44.8137 4.3626L46.6846 5.0694C46.82 4.71099 46.9473 4.37687 47.0665 4.06698L45.1998 3.34902ZM44.8189 4.34903L44.3029 5.65703L46.1634 6.39097L46.6794 5.08297L44.8189 4.34903Z" fill="url(#paint0_linear)"/>
<defs>
<linearGradient id="paint0_linear" x1="26" y1="-5" x2="26" y2="15" gradientUnits="userSpaceOnUse">
<stop stop-color="white"/>
<stop offset="1" stop-opacity="0"/>
</linearGradient>
</defs>
</svg>
